<svg width="38" height="11" viewBox="0 0 38 11" fill="none" xmlns="http://www.w3.org/2000/svg">
<path d="M0.219727 7.05688C0.219727 5.92212 0.488607 5.01066 1.02637 4.32251C1.56413 3.6298 2.26823 3.28345 3.13867 3.28345C4.00456 3.28345 4.69043 3.57967 5.19629 4.17212V0.31665H6.46094V10.8167H5.29883L5.2373 10.0237C4.73145 10.6435 4.02734 10.9534 3.125 10.9534C2.26823 10.9534 1.56868 10.6025 1.02637 9.90063C0.488607 9.19881 0.219727 8.2828 0.219727 7.15259V7.05688ZM1.48438 7.20044C1.48438 8.03898 1.65755 8.69523 2.00391 9.16919C2.35026 9.64315 2.82878 9.88013 3.43945 9.88013C4.24154 9.88013 4.82715 9.5201 5.19629 8.80005V5.40259C4.81803 4.70532 4.23698 4.35669 3.45312 4.35669C2.83333 4.35669 2.35026 4.59595 2.00391 5.07446C1.65755 5.55298 1.48438 6.26164 1.48438 7.20044ZM11.499 10.9534C10.4964 10.9534 9.68066 10.6252 9.05176 9.96899C8.42285 9.30819 8.1084 8.42635 8.1084 7.32349V7.09106C8.1084 6.35734 8.2474 5.70337 8.52539 5.12915C8.80794 4.55037 9.19987 4.0992 9.70117 3.77563C10.207 3.44751 10.7539 3.28345 11.3418 3.28345C12.3034 3.28345 13.0508 3.60018 13.584 4.23364C14.1172 4.86711 14.3838 5.77401 14.3838 6.95435V7.48071H9.37305C9.39128 8.20988 9.60319 8.80005 10.0088 9.25122C10.4189 9.69784 10.9385 9.92114 11.5674 9.92114C12.014 9.92114 12.3923 9.83 12.7021 9.64771C13.012 9.46541 13.2832 9.22388 13.5156 8.9231L14.2881 9.52466C13.6683 10.4771 12.7386 10.9534 11.499 10.9534ZM11.3418 4.32251C10.8314 4.32251 10.403 4.50936 10.0566 4.88306C9.71029 5.2522 9.49609 5.77173 9.41406 6.44165H13.1191V6.34595C13.0827 5.70337 12.9095 5.20662 12.5996 4.85571C12.2897 4.50024 11.8704 4.32251 11.3418 4.32251ZM17.2275 10.8167H15.9629V0.31665H17.2275V10.8167ZM22.3271 10.9534C21.3245 10.9534 20.5088 10.6252 19.8799 9.96899C19.251 9.30819 18.9365 8.42635 18.9365 7.32349V7.09106C18.9365 6.35734 19.0755 5.70337 19.3535 5.12915C19.6361 4.55037 20.028 4.0992 20.5293 3.77563C21.0352 3.44751 21.582 3.28345 22.1699 3.28345C23.1315 3.28345 23.8789 3.60018 24.4121 4.23364C24.9453 4.86711 25.2119 5.77401 25.2119 6.95435V7.48071H20.2012C20.2194 8.20988 20.4313 8.80005 20.8369 9.25122C21.2471 9.69784 21.7666 9.92114 22.3955 9.92114C22.8421 9.92114 23.2204 9.83 23.5303 9.64771C23.8402 9.46541 24.1113 9.22388 24.3438 8.9231L25.1162 9.52466C24.4964 10.4771 23.5667 10.9534 22.3271 10.9534ZM22.1699 4.32251C21.6595 4.32251 21.2311 4.50936 20.8848 4.88306C20.5384 5.2522 20.3242 5.77173 20.2422 6.44165H23.9473V6.34595C23.9108 5.70337 23.7376 5.20662 23.4277 4.85571C23.1178 4.50024 22.6986 4.32251 22.1699 4.32251ZM28.3975 1.62915V3.42017H29.7783V4.39771H28.3975V8.98462C28.3975 9.28084 28.459 9.50415 28.582 9.65454C28.7051 9.80037 28.9147 9.87329 29.2109 9.87329C29.3568 9.87329 29.5573 9.84595 29.8125 9.79126V10.8167C29.4798 10.9078 29.1562 10.9534 28.8418 10.9534C28.2767 10.9534 27.8506 10.7825 27.5635 10.4407C27.2764 10.0989 27.1328 9.61353 27.1328 8.98462V4.39771H25.7861V3.42017H27.1328V1.62915H28.3975ZM34.3311 10.9534C33.3285 10.9534 32.5127 10.6252 31.8838 9.96899C31.2549 9.30819 30.9404 8.42635 30.9404 7.32349V7.09106C30.9404 6.35734 31.0794 5.70337 31.3574 5.12915C31.64 4.55037 32.0319 4.0992 32.5332 3.77563C33.0391 3.44751 33.5859 3.28345 34.1738 3.28345C35.1354 3.28345 35.8828 3.60018 36.416 4.23364C36.9492 4.86711 37.2158 5.77401 37.2158 6.95435V7.48071H32.2051C32.2233 8.20988 32.4352 8.80005 32.8408 9.25122C33.251 9.69784 33.7705 9.92114 34.3994 9.92114C34.846 9.92114 35.2243 9.83 35.5342 9.64771C35.8441 9.46541 36.1152 9.22388 36.3477 8.9231L37.1201 9.52466C36.5003 10.4771 35.5706 10.9534 34.3311 10.9534ZM34.1738 4.32251C33.6634 4.32251 33.235 4.50936 32.8887 4.88306C32.5423 5.2522 32.3281 5.77173 32.2461 6.44165H35.9512V6.34595C35.9147 5.70337 35.7415 5.20662 35.4316 4.85571C35.1217 4.50024 34.7025 4.32251 34.1738 4.32251Z" fill="black"/>
</svg>
