<svg width="26" height="27" viewBox="0 0 26 27" fill="none" xmlns="http://www.w3.org/2000/svg">
<path d="M16.6961 16.12V17H14.7921L14.3761 15.848C13.9388 16.296 13.4641 16.6267 12.9521 16.84C12.4508 17.0533 11.8854 17.16 11.2561 17.16C10.2321 17.16 9.47476 16.9627 8.98409 16.568C8.49343 16.1733 8.24809 15.5333 8.24809 14.648C8.24809 13.7093 8.54143 13.032 9.12809 12.616C9.71476 12.1893 10.6588 11.976 11.9601 11.976C12.4721 11.976 12.9201 12.024 13.3041 12.12C13.6988 12.2053 14.0188 12.312 14.2641 12.44V11.816C14.2641 11.3253 14.2001 10.9467 14.0721 10.68C13.9548 10.4027 13.7361 10.2053 13.4161 10.088C13.1068 9.96 12.6534 9.896 12.0561 9.896C10.9788 9.896 9.85876 10.024 8.69609 10.28V9.128C9.88009 8.872 11.0108 8.744 12.0881 8.744C13.0908 8.744 13.8428 8.84533 14.3441 9.048C14.8561 9.25067 15.1921 9.544 15.3521 9.928C15.5228 10.312 15.6081 10.8453 15.6081 11.528V15.64L16.6961 16.12ZM9.65609 14.552C9.65609 15.0747 9.78409 15.448 10.0401 15.672C10.3068 15.896 10.7868 16.008 11.4801 16.008C11.9921 16.008 12.4828 15.9173 12.9521 15.736C13.4321 15.544 13.8694 15.2827 14.2641 14.952V13.352C13.6668 13.1813 12.9468 13.096 12.1041 13.096C11.1761 13.096 10.5361 13.2133 10.1841 13.448C9.83209 13.6827 9.65609 14.0507 9.65609 14.552Z" fill="#98C29A"/>
<path d="M24.3019 12.7382C24.3019 19.029 19.1029 24.1598 12.6509 24.1598C6.19898 24.1598 1 19.029 1 12.7382C1 6.44743 6.19898 1.31665 12.6509 1.31665C19.1029 1.31665 24.3019 6.44743 24.3019 12.7382Z" stroke="#98C29A" stroke-width="2"/>
</svg>
