<svg width="304" height="448" viewBox="0 0 304 448" fill="none" xmlns="http://www.w3.org/2000/svg">
<g clip-path="url(#clip0)">
<path d="M93.0666 148L45.6058 173.634C46.4174 175.027 46.9403 176.568 47.1434 178.167C47.3466 179.765 47.2259 181.388 46.7886 182.939C46.3513 184.49 45.6062 185.938 44.5974 187.196C43.5887 188.455 42.3369 189.499 40.9161 190.266C39.4953 191.034 37.9345 191.509 36.3262 191.664C34.7179 191.818 33.0948 191.65 31.553 191.168C30.0112 190.686 28.5822 189.9 27.3506 188.857C26.119 187.814 25.1098 186.535 24.383 185.096L8.2002 193.837L50.1185 271.004L134.985 225.167L93.0666 148Z" fill="#F2F2F2"/>
<path d="M34.4439 189.449C39.8551 189.449 44.2417 185.075 44.2417 179.679C44.2417 174.284 39.8551 169.91 34.4439 169.91C29.0326 169.91 24.646 174.284 24.646 179.679C24.646 185.075 29.0326 189.449 34.4439 189.449Z" fill="#FAF000"/>
<path d="M212.242 354.583L263.557 337.892C263.01 336.376 262.774 334.766 262.863 333.157C262.952 331.549 263.364 329.974 264.074 328.527C264.784 327.08 265.779 325.79 266.998 324.733C268.218 323.676 269.638 322.874 271.174 322.374C272.71 321.875 274.331 321.687 275.941 321.824C277.551 321.961 279.117 322.418 280.547 323.169C281.976 323.92 283.24 324.95 284.263 326.197C285.286 327.444 286.048 328.883 286.503 330.429L304 324.738L276.706 241.304L184.948 271.149L212.242 354.583Z" fill="#F2F2F2"/>
<path d="M275.628 343.72C281.039 343.72 285.426 339.346 285.426 333.95C285.426 328.555 281.039 324.18 275.628 324.18C270.217 324.18 265.83 328.555 265.83 333.95C265.83 339.346 270.217 343.72 275.628 343.72Z" fill="#FAF000"/>
<path d="M277.65 193.773H40.7266V301.102H277.65V193.773Z" fill="#3F3D56"/>
<path d="M273.741 197.671H44.6353V295.106H273.741V197.671Z" fill="white"/>
<path d="M250.44 290.459H228.19V297.954H250.44V290.459Z" fill="#3F3D56"/>
<path d="M226.988 296.155H210.752V298.254H226.988V296.155Z" fill="#FAF000"/>
<path d="M63.2764 234.546H150.77L164.334 241.136L185.947 251.635L200.078 225.252H240.067" stroke="#3F3D56" stroke-width="2" stroke-miterlimit="10"/>
<path d="M97.6797 234.546L104.167 249.836H120.102" stroke="#3F3D56" stroke-width="2" stroke-miterlimit="10"/>
<path d="M121.999 234.546L144.155 222.554H159.79" stroke="#3F3D56" stroke-width="2" stroke-miterlimit="10"/>
<path d="M97.5522 237.244C99.0466 237.244 100.258 236.036 100.258 234.546C100.258 233.056 99.0466 231.848 97.5522 231.848C96.0577 231.848 94.8462 233.056 94.8462 234.546C94.8462 236.036 96.0577 237.244 97.5522 237.244Z" fill="#FAF000"/>
<path d="M122.808 237.244C124.303 237.244 125.514 236.036 125.514 234.546C125.514 233.056 124.303 231.848 122.808 231.848C121.314 231.848 120.102 233.056 120.102 234.546C120.102 236.036 121.314 237.244 122.808 237.244Z" fill="#FAF000"/>
<path d="M164.3 241.142L166.104 267.824H181.738" stroke="#3F3D56" stroke-width="2" stroke-miterlimit="10"/>
<path d="M194.411 235.833L177.228 222.554H193.464" stroke="#3F3D56" stroke-width="2" stroke-miterlimit="10"/>
<path d="M222.794 225.252L239.465 238.444H255.1" stroke="#3F3D56" stroke-width="2" stroke-miterlimit="10"/>
<path d="M164.299 243.84C165.794 243.84 167.005 242.632 167.005 241.142C167.005 239.652 165.794 238.444 164.299 238.444C162.805 238.444 161.593 239.652 161.593 241.142C161.593 242.632 162.805 243.84 164.299 243.84Z" fill="#FAF000"/>
<path d="M222.628 227.95C224.123 227.95 225.334 226.742 225.334 225.252C225.334 223.762 224.123 222.554 222.628 222.554C221.134 222.554 219.922 223.762 219.922 225.252C219.922 226.742 221.134 227.95 222.628 227.95Z" fill="#FAF000"/>
<path d="M194.366 238.444C195.861 238.444 197.072 237.235 197.072 235.745C197.072 234.255 195.861 233.047 194.366 233.047C192.872 233.047 191.66 234.255 191.66 235.745C191.66 237.235 192.872 238.444 194.366 238.444Z" fill="#FAF000"/>
<path d="M104.467 252.234H120.102" stroke="#3F3D56" stroke-width="2" stroke-miterlimit="10"/>
<path d="M249.4 175.068C251.85 175.068 253.836 173.087 253.836 170.644C253.836 168.201 251.85 166.22 249.4 166.22C246.95 166.22 244.963 168.201 244.963 170.644C244.963 173.087 246.95 175.068 249.4 175.068Z" stroke="#3F3D56" stroke-width="2" stroke-miterlimit="10"/>
<path d="M51.7009 378.901C76.9408 378.901 97.4018 375.142 97.4018 370.506C97.4018 365.87 76.9408 362.112 51.7009 362.112C26.461 362.112 6 365.87 6 370.506C6 375.142 26.461 378.901 51.7009 378.901Z" fill="#F2F2F2"/>
<path d="M83.0872 296L74.9341 300.101L75.4617 301.149L83.6145 297.047L83.0872 296Z" fill="#FAF000"/>
<path d="M81.7615 288.371L81.3952 290.562C81.3952 290.562 81.9446 305.719 77.9156 300.971C73.8865 296.223 76.6336 289.832 76.6336 289.832L77.7324 288.005L81.7615 288.371Z" fill="#FBBEBE"/>
<path d="M58.3194 218.247C58.3194 218.247 57.5869 225.916 57.2206 226.282C56.8543 226.647 62.7148 233.586 62.7148 233.586L67.8427 228.838C67.8427 228.838 67.4764 221.899 68.5752 220.438C69.6741 218.977 58.3194 218.247 58.3194 218.247Z" fill="#FBBEBE"/>
<path opacity="0.1" d="M58.3194 218.247C58.3194 218.247 57.5869 225.916 57.2206 226.282C56.8543 226.647 62.7148 233.586 62.7148 233.586L67.8427 228.838C67.8427 228.838 67.4764 221.899 68.5752 220.438C69.6741 218.977 58.3194 218.247 58.3194 218.247Z" fill="black"/>
<path d="M44.7673 358.129V364.703L42.2032 365.069L38.5405 363.973L39.6392 357.033L44.7673 358.129Z" fill="#3F3D56"/>
<path d="M41.4709 361.416C41.4709 361.416 40.3721 358.495 38.5407 358.86C36.7093 359.225 36.343 361.416 36.343 361.416C36.343 361.416 34.8779 366.895 32.6802 368.721C30.4826 370.547 28.2849 375.295 32.6802 376.026C37.0756 376.756 40.7384 374.93 40.7384 374.565C40.7384 374.199 41.8372 372.008 43.6686 371.643C45.5 371.278 46.9651 370.912 46.9651 369.451C46.9651 367.99 45.8663 366.53 45.8663 366.53C45.8663 366.53 45.5 359.602 44.7674 360.509C44.2608 361.226 43.8886 362.028 43.6686 362.877L41.4709 361.416Z" fill="#2F2E41"/>
<path d="M60.5174 354.842L59.0522 360.32L62.7149 361.051L64.5463 359.225L64.9125 354.477L60.5174 354.842Z" fill="#3F3D56"/>
<path d="M60.151 359.59C60.151 359.59 61.6161 358.495 62.3487 358.495H63.4475C63.4475 358.495 63.4475 355.938 65.2789 355.938C67.1103 355.938 66.744 357.764 66.744 357.764C66.744 357.764 70.7731 363.973 71.8719 365.069C72.9708 366.164 78.8312 369.451 74.0696 370.912C69.308 372.373 66.0115 372.373 63.8138 369.817C63.8138 369.817 61.6161 368.721 60.151 368.721C58.6859 368.721 56.8545 367.99 56.8545 366.895C56.8545 365.799 57.9533 363.608 57.9533 363.608C57.9533 363.608 58.6859 357.034 59.0522 357.764C59.4184 358.495 60.151 359.59 60.151 359.59Z" fill="#2F2E41"/>
<path d="M44.4011 270.84V282.892C44.4011 282.892 40.3721 306.267 40.3721 313.937C40.3721 321.606 34.1453 358.129 37.0756 358.86C40.0058 359.59 46.9651 360.686 47.3314 359.59C47.6977 358.494 50.2616 323.798 50.6279 323.433C50.9942 323.067 58.686 294.214 58.686 294.214L60.1511 294.579L60.8837 327.45C60.8837 327.45 57.2209 357.034 59.0523 357.034C60.8837 357.034 68.5756 356.668 68.5756 354.477C68.5756 352.286 72.6046 311.745 72.6046 311.745C72.6046 311.745 77.3662 279.605 75.5349 276.318C73.7035 273.031 73.7035 271.205 73.7035 271.205L44.4011 270.84Z" fill="#2F2E41"/>
<path d="M64.3632 223.908C68.409 223.908 71.6888 220.637 71.6888 216.603C71.6888 212.569 68.409 209.299 64.3632 209.299C60.3174 209.299 57.0376 212.569 57.0376 216.603C57.0376 220.637 60.3174 223.908 64.3632 223.908Z" fill="#FBBEBE"/>
<path d="M62.7151 229.204C62.7151 229.204 58.1366 225.369 57.7703 223.908C57.7703 223.908 55.3895 226.282 55.3895 226.647C55.3895 227.012 45.1337 228.108 42.5697 231.03C40.0058 233.951 37.8081 240.16 37.8081 240.16L44.0349 251.848C44.0349 251.848 44.4011 258.422 44.4011 259.152C44.4011 259.883 42.5697 271.57 43.3023 271.935C44.0349 272.301 51.3604 275.953 57.5872 275.222C63.8139 274.492 70.0407 273.396 71.8721 273.396C73.7035 273.396 75.1686 274.127 75.1686 273.396C75.1686 272.666 74.0697 271.205 74.0697 270.474C74.0697 269.744 73.7035 267.918 73.7035 266.822C73.7035 265.726 72.9709 263.9 72.9709 262.439C72.9709 260.978 81.0291 241.256 81.0291 241.256C81.0291 241.256 80.6628 235.047 74.8023 232.125C68.9418 229.204 68.2093 228.108 68.2093 228.108C68.2093 228.108 68.0951 225.916 67.7859 225.916C67.4767 225.916 66.3779 229.204 63.4477 229.569L62.7151 229.204Z" fill="#D0CDE1"/>
<path d="M42.9355 277.779L45.4996 281.796L52.0926 280.336L47.331 274.857L42.9355 277.779Z" fill="#FBBEBE"/>
<path d="M78.8311 238.334L81.0288 241.256C81.0288 241.256 85.4241 262.439 84.6916 270.109C83.959 277.779 83.2264 283.623 83.2264 283.623C83.2264 283.623 84.6916 289.101 83.5927 289.101C82.4939 289.101 75.9009 289.466 75.9009 288.371C75.9009 287.275 76.6334 280.336 76.6334 280.336L74.802 264.265L70.7729 258.787L78.8311 238.334Z" fill="#D0CDE1"/>
<path d="M59.3875 213.057C59.8365 212.867 60.3556 213.021 60.8365 212.94C61.4013 212.845 61.9065 212.428 62.4768 212.481C62.747 212.53 63.0096 212.615 63.2577 212.733C63.3822 212.792 63.5173 212.824 63.6548 212.829C63.7923 212.834 63.9293 212.811 64.0577 212.762C64.1189 212.734 64.173 212.692 64.2161 212.64C64.2592 212.588 64.2902 212.528 64.3068 212.463C64.3235 212.397 64.3254 212.329 64.3124 212.263C64.2994 212.197 64.2718 212.135 64.2317 212.081C64.7142 212.039 65.1703 211.843 65.5328 211.523C65.605 211.448 65.6888 211.385 65.7811 211.337C65.8886 211.309 66.0007 211.303 66.1105 211.32C66.2202 211.337 66.3253 211.377 66.4192 211.436L67.2573 211.821C67.4462 211.888 67.6122 212.006 67.7363 212.163C67.836 212.318 67.8555 212.526 67.9967 212.645C68.1769 212.796 68.4462 212.722 68.6814 212.737C68.8949 212.758 69.0933 212.856 69.2391 213.013C69.3848 213.17 69.4677 213.375 69.472 213.588C69.4687 213.834 69.3793 214.135 69.5738 214.285C69.6866 214.372 69.8468 214.358 69.979 214.411C70.3216 214.55 70.3229 215.026 70.2723 215.391C70.2217 215.756 70.2467 216.238 70.5989 216.35C70.8468 216.429 71.1002 216.261 71.3578 216.223C71.7464 216.166 72.106 216.409 72.4519 216.594C72.7979 216.779 73.2575 216.905 73.5573 216.652C73.8363 216.416 73.8184 215.986 73.7417 215.629C73.6316 215.118 73.4507 214.625 73.2043 214.164C73.1131 214.028 73.0594 213.871 73.0485 213.708C73.0694 213.593 73.1144 213.484 73.1807 213.388C73.2469 213.292 73.3328 213.211 73.4327 213.151C73.8566 212.816 74.3442 212.48 74.4814 211.959C74.5821 211.576 74.4688 211.173 74.4776 210.778C74.4882 210.297 74.68 209.818 74.5901 209.345C74.427 208.488 73.4706 208.076 72.8533 207.458C72.0049 206.609 71.7295 205.251 70.7283 204.588C69.9274 204.057 68.8797 204.121 67.9677 203.817C66.9657 203.484 66.1592 202.718 65.1709 202.346C64.6314 202.148 64.0546 202.071 63.4818 202.121C62.9091 202.171 62.3545 202.347 61.8579 202.636C61.563 202.854 61.2339 203.022 60.8839 203.132C60.5892 203.166 60.2913 203.163 59.9974 203.122C59.4133 203.092 58.8311 203.212 58.3066 203.47C58.1059 203.55 57.9387 203.696 57.833 203.884C57.656 204.276 57.9131 204.889 57.5252 205.076C57.3444 205.163 57.1309 205.08 56.93 205.084C56.5393 205.093 56.2388 205.431 56.0529 205.774C55.9079 206.137 55.6999 206.47 55.4383 206.76C54.9608 207.178 54.0932 207.246 53.9684 207.867C53.9662 208.13 53.9811 208.392 54.0132 208.653C53.9771 209.203 53.3869 209.621 53.4177 210.171C53.4532 210.806 54.262 211.116 54.4782 211.714C54.6428 212.17 54.4262 212.662 54.2771 213.123C54.128 213.584 54.0831 214.174 54.4681 214.469C54.619 214.585 54.8131 214.632 54.967 214.744C55.3654 215.033 55.3604 215.616 55.3161 216.105C55.2906 216.206 55.2905 216.313 55.3157 216.414C55.3409 216.516 55.3908 216.61 55.4608 216.688C55.5266 216.727 55.6001 216.753 55.6765 216.762C55.7528 216.771 55.8302 216.764 55.9036 216.741C56.1427 216.683 56.3676 216.577 56.5642 216.429C56.7609 216.282 56.9252 216.096 57.0472 215.882C57.1755 215.671 57.2013 215.485 57.4343 215.372C57.5924 215.296 57.7845 215.364 57.9454 215.265C58.7112 214.795 58.4476 213.454 59.3875 213.057Z" fill="#2F2E41"/>
<path d="M38.9066 239.065L37.8077 240.16C37.8077 240.16 31.2147 259.883 33.4124 264.265C35.61 268.648 40.0054 279.605 41.4705 279.24C42.9356 278.875 48.0635 275.588 48.0635 275.222C48.0635 274.857 41.8368 264.631 41.8368 264.631C41.8368 264.631 41.1042 262.439 41.4705 262.074C41.8368 261.709 41.8368 262.074 41.4705 261.344C41.1042 260.613 41.1042 261.344 41.8368 260.613C42.5693 259.883 42.5693 259.883 42.5693 259.518C42.5693 259.152 44.767 250.022 44.767 250.022L38.9066 239.065Z" fill="#D0CDE1"/>
<path d="M44.584 281.979L52.6424 279.423L53.741 281.979L44.9505 283.805L44.584 281.979Z" fill="#2F2E41"/>
<path opacity="0.1" d="M44.584 281.979L52.6424 279.423L53.741 281.979L44.9505 283.805L44.584 281.979Z" fill="black"/>
<path opacity="0.1" d="M55.5723 226.83L61.799 231.943L62.5317 230.847L55.5723 226.83Z" fill="black"/>
<path opacity="0.1" d="M68.026 228.291L63.6309 230.847L63.9971 231.943L68.026 228.291Z" fill="black"/>
</g>
<circle cx="54.5" cy="393.5" r="54.5" fill="#FAF000" fill-opacity="0.05"/>
<path opacity="0.1" d="M230.437 75.1618C221.783 75.4605 213.539 78.2452 205.669 81.2894C197.798 84.3335 190 87.7074 181.553 89.3211C176.12 90.3588 169.906 90.5028 165.529 87.6038C161.315 84.812 159.954 79.9875 159.223 75.5188C158.672 72.1533 158.349 68.6165 159.856 65.4616C160.904 63.2755 162.764 61.4369 164.051 59.3424C168.525 52.0521 165.365 43.0636 160.512 35.947C158.242 32.6077 155.598 29.4231 153.843 25.8684C152.088 22.3137 151.276 18.2426 152.811 14.6177C154.334 11.0237 157.962 8.32463 161.891 6.42648C169.873 2.5707 179.279 1.46633 188.451 0.841553C208.755 -0.536537 229.166 0.0584946 249.523 0.653519C257.057 0.87606 264.623 1.10098 272.035 2.26129C276.15 2.90511 280.398 3.92737 283.385 6.39674C287.178 9.53134 288.118 14.839 285.576 18.7733C281.313 25.3651 269.525 27.0026 266.545 34.0775C264.905 37.9713 266.589 42.3091 268.973 45.9209C274.086 53.6694 282.657 60.4658 283.109 69.3222C283.419 75.4046 279.299 81.4965 272.929 84.374C266.25 87.3908 256.991 87.0112 252.064 82.0177C246.994 76.8755 238.079 74.8976 230.437 75.1618Z" fill="#FAF000" fill-opacity="0.5"/>
<circle cx="220" cy="39" r="37" fill="#FAF000" fill-opacity="0.05"/>
<defs>
<clipPath id="clip0">
<rect width="298" height="230.901" fill="white" transform="translate(6 148)"/>
</clipPath>
</defs>
</svg>
