<svg width="26" height="25" viewBox="0 0 26 25" fill="none" xmlns="http://www.w3.org/2000/svg">
<path d="M12.7381 6.45777C13.0687 6.45777 13.3301 6.55377 13.5221 6.74577C13.7247 6.93777 13.8261 7.20977 13.8261 7.56177C13.8261 7.91377 13.7247 8.18577 13.5221 8.37777C13.3301 8.56977 13.0687 8.66577 12.7381 8.66577C12.4074 8.66577 12.1407 8.56977 11.9381 8.37777C11.7461 8.18577 11.6501 7.91377 11.6501 7.56177C11.6501 7.20977 11.7461 6.93777 11.9381 6.74577C12.1407 6.55377 12.4074 6.45777 12.7381 6.45777ZM13.5381 16.6338L14.6261 17.1138V17.9938H11.1061V17.1138L12.1941 16.6338V11.3218L11.1061 10.8738V9.96177H13.5381V16.6338Z" fill="#98C1FF"/>
<path d="M24.3019 12.4216C24.3019 18.7124 19.1029 23.8431 12.6509 23.8431C6.19898 23.8431 1 18.7124 1 12.4216C1 6.13078 6.19898 1 12.6509 1C19.1029 1 24.3019 6.13078 24.3019 12.4216Z" stroke="#98C1FF" stroke-width="2"/>
</svg>
