<svg width="26" height="26" viewBox="0 0 26 26" fill="none" xmlns="http://www.w3.org/2000/svg">
<path d="M13.2425 7.35493C13.5731 7.35493 13.8345 7.45093 14.0265 7.64293C14.2291 7.83493 14.3305 8.10693 14.3305 8.45893C14.3305 8.81093 14.2291 9.08293 14.0265 9.27493C13.8345 9.46693 13.5731 9.56293 13.2425 9.56293C12.9118 9.56293 12.6451 9.46693 12.4425 9.27493C12.2505 9.08293 12.1545 8.81093 12.1545 8.45893C12.1545 8.10693 12.2505 7.83493 12.4425 7.64293C12.6451 7.45093 12.9118 7.35493 13.2425 7.35493ZM14.0425 17.5309L15.1305 18.0109V18.8909H11.6105V18.0109L12.6985 17.5309V12.2189L11.6105 11.7709V10.8589H14.0425V17.5309Z" fill="#C4C4C4"/>
<path d="M24.8063 13.3188C24.8063 19.6096 19.6073 24.7404 13.1553 24.7404C6.70337 24.7404 1.50439 19.6096 1.50439 13.3188C1.50439 7.028 6.70337 1.89722 13.1553 1.89722C19.6073 1.89722 24.8063 7.028 24.8063 13.3188Z" stroke="#C4C4C4" stroke-width="2"/>
</svg>
