<svg width="26" height="25" viewBox="0 0 26 25" fill="none" xmlns="http://www.w3.org/2000/svg">
<path d="M16.9313 18.3749V19.2549H13.2513V18.3749L14.4993 17.8949V14.6309C14.0727 15.0362 13.6087 15.3402 13.1073 15.5429C12.6167 15.7349 12.0567 15.8309 11.4273 15.8309C10.702 15.8309 10.1047 15.7082 9.63532 15.4629C9.17666 15.2069 8.82999 14.7802 8.59532 14.1829C8.36066 13.5749 8.24332 12.7429 8.24332 11.6869C8.24332 10.1829 8.53132 9.0949 9.10732 8.4229C9.68332 7.7509 10.5047 7.4149 11.5713 7.4149C12.0833 7.4149 12.5793 7.48956 13.0593 7.6389C13.55 7.77756 14.0887 8.02823 14.6753 8.3909L15.1553 7.6389H15.8433V17.8949L16.9313 18.3749ZM9.65132 11.8149C9.65132 12.5509 9.72066 13.1269 9.85932 13.5429C10.0087 13.9589 10.2327 14.2522 10.5313 14.4229C10.83 14.5829 11.2193 14.6629 11.6993 14.6629C12.6913 14.6629 13.6247 14.3162 14.4993 13.6229V9.2389C13.8273 8.99356 13.3153 8.8229 12.9633 8.7269C12.622 8.6309 12.2647 8.5829 11.8913 8.5829C11.0913 8.5829 10.5153 8.84956 10.1633 9.3829C9.82199 9.90556 9.65132 10.7162 9.65132 11.8149Z" fill="#D3CB00"/>
<path d="M24.3019 12.4216C24.3019 18.7124 19.1029 23.8431 12.6509 23.8431C6.19898 23.8431 1 18.7124 1 12.4216C1 6.13078 6.19898 1 12.6509 1C19.1029 1 24.3019 6.13078 24.3019 12.4216Z" stroke="#D3CB00" stroke-width="2"/>
</svg>
