<svg width="26" height="26" viewBox="0 0 26 26" fill="none" xmlns="http://www.w3.org/2000/svg">
<path d="M17.9123 19.4687V20.3487H14.2323V19.4687L15.4803 18.9887V15.7247C15.0536 16.13 14.5896 16.434 14.0883 16.6367C13.5976 16.8287 13.0376 16.9247 12.4083 16.9247C11.6829 16.9247 11.0856 16.802 10.6163 16.5567C10.1576 16.3007 9.81095 15.874 9.57628 15.2767C9.34161 14.6687 9.22428 13.8367 9.22428 12.7807C9.22428 11.2767 9.51228 10.1887 10.0883 9.5167C10.6643 8.8447 11.4856 8.5087 12.5523 8.5087C13.0643 8.5087 13.5603 8.58337 14.0403 8.7327C14.5309 8.87137 15.0696 9.12204 15.6563 9.4847L16.1363 8.7327H16.8243V18.9887L17.9123 19.4687ZM10.6323 12.9087C10.6323 13.6447 10.7016 14.2207 10.8403 14.6367C10.9896 15.0527 11.2136 15.346 11.5123 15.5167C11.8109 15.6767 12.2003 15.7567 12.6803 15.7567C13.6723 15.7567 14.6056 15.41 15.4803 14.7167V10.3327C14.8083 10.0874 14.2963 9.9167 13.9443 9.8207C13.6029 9.7247 13.2456 9.6767 12.8723 9.6767C12.0723 9.6767 11.4963 9.94337 11.1443 10.4767C10.8029 10.9994 10.6323 11.81 10.6323 12.9087Z" fill="#C4C4C4"/>
<path d="M24.819 13.2074C24.819 19.4982 19.62 24.629 13.168 24.629C6.71607 24.629 1.51709 19.4982 1.51709 13.2074C1.51709 6.91664 6.71607 1.78586 13.168 1.78586C19.62 1.78586 24.819 6.91664 24.819 13.2074Z" stroke="#C4C4C4" stroke-width="2"/>
</svg>
