<svg width="26" height="28" viewBox="0 0 26 28" fill="none" xmlns="http://www.w3.org/2000/svg">
<path d="M17.1199 16.8049V17.6849H15.2159L14.7999 16.5329C14.3626 16.9809 13.8879 17.3116 13.3759 17.5249C12.8746 17.7383 12.3093 17.8449 11.6799 17.8449C10.6559 17.8449 9.89859 17.6476 9.40792 17.2529C8.91726 16.8583 8.67192 16.2183 8.67192 15.3329C8.67192 14.3943 8.96526 13.7169 9.55192 13.3009C10.1386 12.8743 11.0826 12.6609 12.3839 12.6609C12.8959 12.6609 13.3439 12.7089 13.7279 12.8049C14.1226 12.8903 14.4426 12.9969 14.6879 13.1249V12.5009C14.6879 12.0103 14.6239 11.6316 14.4959 11.3649C14.3786 11.0876 14.1599 10.8903 13.8399 10.7729C13.5306 10.6449 13.0773 10.5809 12.4799 10.5809C11.4026 10.5809 10.2826 10.7089 9.11992 10.9649V9.81294C10.3039 9.55694 11.4346 9.42894 12.5119 9.42894C13.5146 9.42894 14.2666 9.53027 14.7679 9.73294C15.2799 9.9356 15.6159 10.2289 15.7759 10.6129C15.9466 10.9969 16.0319 11.5303 16.0319 12.2129V16.3249L17.1199 16.8049ZM10.0799 15.2369C10.0799 15.7596 10.2079 16.1329 10.4639 16.3569C10.7306 16.5809 11.2106 16.6929 11.9039 16.6929C12.4159 16.6929 12.9066 16.6023 13.3759 16.4209C13.8559 16.2289 14.2933 15.9676 14.6879 15.6369V14.0369C14.0906 13.8663 13.3706 13.7809 12.5279 13.7809C11.5999 13.7809 10.9599 13.8983 10.6079 14.1329C10.2559 14.3676 10.0799 14.7356 10.0799 15.2369Z" fill="#C4C4C4"/>
<path d="M24.631 14.1002C24.631 20.391 19.432 25.5218 12.98 25.5218C6.52808 25.5218 1.3291 20.391 1.3291 14.1002C1.3291 7.80945 6.52808 2.67867 12.98 2.67867C19.432 2.67867 24.631 7.80945 24.631 14.1002Z" stroke="#C4C4C4" stroke-width="2"/>
</svg>
