<svg width="278" height="196" viewBox="0 0 278 196" fill="none" xmlns="http://www.w3.org/2000/svg">
<g clip-path="url(#clip0)">
<path opacity="0.1" d="M240.908 196C249.732 196 256.885 194.099 256.885 191.755C256.885 189.41 249.732 187.51 240.908 187.51C232.084 187.51 224.931 189.41 224.931 191.755C224.931 194.099 232.084 196 240.908 196Z" fill="#FAF000"/>
<path opacity="0.1" d="M267.258 173.632C261.179 178.679 252.528 180.768 244.163 182.087L242.755 182.302C234.017 183.607 225.182 184.301 216.317 184.723C211.574 184.953 206.831 185.116 202.088 185.261L198.37 185.371C193.544 185.514 188.708 185.655 183.864 185.793C179.12 185.928 174.377 186.054 169.634 186.173C163.559 186.321 157.484 186.444 151.41 186.542C146.666 186.617 141.923 186.669 137.18 186.697C131.104 186.732 125.029 186.721 118.956 186.662C114.209 186.614 109.466 186.531 104.726 186.413C98.6479 186.256 92.5732 186.027 86.5019 185.725C82.3811 185.524 78.2627 185.281 74.1469 184.998L72.2721 184.866C54.6047 183.592 36.6202 181.305 21.1597 174.079L20.7428 173.882C20.5356 173.784 20.3284 173.687 20.1212 173.584C17.2825 172.226 14.5634 170.63 11.9927 168.814C7.42174 165.551 3.6471 161.568 1.65243 156.843C-1.47313 149.432 0.179525 141.101 3.74945 133.855C7.31938 126.609 12.6793 120.067 17.3152 113.243C18.6732 111.244 19.9614 109.17 21.1597 107.044C28.6491 93.7085 32.3638 78.2766 24.5124 65.4258C23.4761 63.7874 22.3571 62.2028 21.1597 60.6783C19.2449 58.1796 17.2977 55.6809 15.9821 52.9148C12.9139 46.4782 13.573 39.2395 14.6914 32.3631C16.1893 23.2204 18.9354 13.373 27.5182 7.661C36.423 1.7291 49.0626 2.02894 60.1144 4.16283C77.2975 7.4586 93.1574 14.3575 109.167 20.5792C125.177 26.801 141.948 32.4905 159.551 33.1027C163.332 33.2322 167.118 33.0944 170.879 32.6904C175.895 32.1746 180.841 31.1319 185.639 29.5795C192.566 27.2957 198.87 23.86 203.543 19.085C213.566 8.87786 232.402 8.10577 245.983 14.27C258.942 20.152 267.322 32.6005 266.703 45.034C265.999 58.8742 255.644 70.2533 246.155 81.9247C245.004 83.3389 243.868 84.7582 242.762 86.1874C242.145 86.9854 241.539 87.7849 240.945 88.5862C239.904 90.0005 238.898 91.4222 237.949 92.8615C233.101 100.24 229.673 109.103 233.011 117.069C234.884 121.529 238.456 124.932 242.762 127.903C252.411 134.557 265.73 139.035 271.721 148.35C276.884 156.378 274.972 167.215 267.258 173.632Z" fill="#FAF000"/>
<path opacity="0.1" d="M267.258 173.632C261.179 178.679 252.528 180.768 244.163 182.087L242.755 182.302C234.017 183.607 225.182 184.301 216.317 184.723C211.574 184.953 206.831 185.116 202.088 185.261L198.37 185.371C193.544 185.514 188.708 185.655 183.864 185.793C179.12 185.928 174.377 186.054 169.634 186.173C163.559 186.321 157.484 186.444 151.41 186.542C146.666 186.617 141.923 186.669 137.18 186.697C131.104 186.732 125.029 186.721 118.956 186.662C114.209 186.614 109.466 186.531 104.726 186.413C98.6479 186.256 92.5732 186.027 86.5019 185.725C82.3811 185.524 78.2627 185.281 74.1469 184.998L72.2721 184.866C54.6047 183.592 36.6202 181.305 21.1597 174.079L20.7428 173.882C20.5356 173.784 20.3284 173.687 20.1212 173.584C17.2825 172.226 14.5634 170.63 11.9927 168.814C7.42174 165.551 3.6471 161.568 1.65243 156.843C-1.47313 149.432 0.179525 141.101 3.74945 133.855C7.31938 126.609 12.6793 120.067 17.3152 113.243C18.6732 111.244 19.9614 109.17 21.1597 107.044C28.6491 93.7085 32.3638 78.2766 24.5124 65.4258C23.4761 63.7874 22.3571 62.2028 21.1597 60.6783C19.2449 58.1796 17.2977 55.6809 15.9821 52.9148C12.9139 46.4782 13.573 39.2395 14.6914 32.3631C16.1893 23.2204 18.9354 13.373 27.5182 7.661C36.423 1.7291 49.0626 2.02894 60.1144 4.16283C77.2975 7.4586 93.1574 14.3575 109.167 20.5792C125.177 26.801 141.948 32.4905 159.551 33.1027C163.332 33.2322 167.118 33.0944 170.879 32.6904C175.895 32.1746 180.841 31.1319 185.639 29.5795C192.566 27.2957 198.87 23.86 203.543 19.085C213.566 8.87786 232.402 8.10577 245.983 14.27C258.942 20.152 267.322 32.6005 266.703 45.034C265.999 58.8742 255.644 70.2533 246.155 81.9247C245.004 83.3389 243.868 84.7582 242.762 86.1874C242.145 86.9854 241.539 87.7849 240.945 88.5862C239.904 90.0005 238.898 91.4222 237.949 92.8615C233.101 100.24 229.673 109.103 233.011 117.069C234.884 121.529 238.456 124.932 242.762 127.903C252.411 134.557 265.73 139.035 271.721 148.35C276.884 156.378 274.972 167.215 267.258 173.632Z" fill="#FAF000"/>
<g opacity="0.1">
<path opacity="0.1" d="M138.678 137.266C138.688 137.501 138.705 137.73 138.73 137.955C140.673 137.181 142.579 136.348 144.45 135.457C145.448 135.324 146.376 134.87 147.093 134.162C147.64 133.887 148.184 133.6 148.724 133.313C148.602 133.054 148.463 132.804 148.309 132.563C147.258 130.901 145.661 129.862 143.901 129.92C142.141 129.977 140.618 131.119 139.677 132.84C138.954 134.2 138.61 135.728 138.678 137.266Z" fill="#3F3D56"/>
<path opacity="0.1" d="M138.391 128.528C138.428 130.059 138.872 131.552 139.676 132.855C140.73 134.512 142.328 135.552 144.088 135.494C144.21 135.494 144.337 135.477 144.45 135.467C145.448 135.334 146.376 134.88 147.093 134.172C147.58 133.709 147.991 133.17 148.309 132.578C149.014 131.218 149.357 129.699 149.307 128.168C149.258 126.637 148.816 125.144 148.025 123.833C146.971 122.171 145.373 121.132 143.613 121.189C141.853 121.247 140.333 122.388 139.392 124.11C138.67 125.467 138.325 126.992 138.391 128.528Z" fill="#3F3D56"/>
<path opacity="0.1" d="M143.8 126.757C146.814 126.658 149.152 123.376 149.022 119.428C148.893 115.479 146.345 112.358 143.331 112.457C140.317 112.556 137.979 115.837 138.109 119.786C138.238 123.735 140.786 126.856 143.8 126.757Z" fill="#3F3D56"/>
<path opacity="0.1" d="M143.514 118.02C146.527 117.921 148.865 114.64 148.736 110.691C148.606 106.742 146.058 103.622 143.045 103.721C140.031 103.82 137.693 107.101 137.822 111.05C137.952 114.999 140.5 118.119 143.514 118.02Z" fill="#3F3D56"/>
<path opacity="0.1" d="M143.227 109.282C146.241 109.183 148.579 105.901 148.449 101.952C148.32 98.0037 145.772 94.8828 142.758 94.9819C139.744 95.0809 137.406 98.3623 137.536 102.311C137.665 106.26 140.213 109.381 143.227 109.282Z" fill="#3F3D56"/>
<path opacity="0.1" d="M161.468 41.6707C162.182 40.6966 162.828 39.6738 163.4 38.6098L148.986 36.7258L164.494 36.331C165.875 33.0437 166.572 29.5089 166.541 25.9429C166.51 22.3768 165.752 18.8546 164.314 15.5918L143.866 27.0733L162.589 12.331C160.683 9.29577 158.174 6.68483 155.218 4.6601C152.262 2.63537 148.922 1.24003 145.405 0.560615C141.888 -0.118803 138.269 -0.0678161 134.773 0.710414C131.276 1.48864 127.977 2.97752 125.079 5.08472C122.181 7.19193 119.747 9.87252 117.926 12.9603C116.106 16.048 114.939 19.4771 114.498 23.0349C114.057 26.5927 114.35 30.2033 115.361 33.6428C116.371 37.0823 118.076 40.2774 120.371 43.03C119.259 44.5466 118.312 46.1784 117.548 47.8974L136.474 56.9627L116.412 50.9508C115.154 55.1189 114.954 59.535 115.831 63.7997C116.708 68.0644 118.633 72.0431 121.432 75.3756C118.528 79.3343 116.795 84.0312 116.432 88.9292C116.069 93.8272 117.09 98.7286 119.379 103.073C121.668 107.418 125.132 111.03 129.375 113.496C133.618 115.963 138.469 117.185 143.374 117.023C148.278 116.86 153.038 115.32 157.109 112.577C161.18 109.835 164.397 106.001 166.394 101.515C168.39 97.0281 169.085 92.0698 168.399 87.2066C167.713 82.3434 165.674 77.7715 162.514 74.0138C165.987 69.2855 167.772 63.5264 167.582 57.6611C167.392 51.7957 165.239 46.1643 161.468 41.6707Z" fill="#FAF000"/>
<path opacity="0.1" d="M115.309 59.3765C115.491 65.2455 117.649 70.8807 121.433 75.3681C118.527 79.3264 116.794 84.0229 116.43 88.9209C116.066 93.8188 117.086 98.7204 119.374 103.065C121.662 107.41 125.125 111.023 129.368 113.491C133.611 115.958 138.462 117.181 143.366 117.019C148.271 116.858 153.031 115.318 157.102 112.576C161.173 109.835 164.392 106.002 166.389 101.515C168.387 97.0293 169.082 92.0711 168.397 87.2077C167.712 82.3444 165.673 77.7722 162.514 74.0138C165.872 69.4512 115.214 56.4405 115.309 59.3765Z" fill="black"/>
</g>
<g opacity="0.1">
<path opacity="0.1" d="M81.4292 183.294C81.4292 183.459 81.4117 183.624 81.3917 183.794C80.0104 183.244 78.6531 182.655 77.32 182.027C76.6097 181.934 75.949 181.612 75.4377 181.11C75.0483 180.912 74.6613 180.71 74.2769 180.506C74.3636 180.323 74.462 180.146 74.5714 179.976C75.3204 178.792 76.4538 178.052 77.707 178.092C78.9602 178.132 80.0437 178.941 80.7027 180.166C81.2187 181.125 81.4695 182.205 81.4292 183.294Z" fill="#3F3D56"/>
<path opacity="0.1" d="M81.6239 177.075C81.5993 178.164 81.2857 179.228 80.7152 180.156C79.9663 181.335 78.8304 182.077 77.5797 182.037L77.33 182.017C76.6197 181.924 75.959 181.602 75.4477 181.1C75.1004 180.771 74.808 180.388 74.5814 179.966C74.0807 178.999 73.8357 177.92 73.8698 176.831C73.9039 175.742 74.2159 174.68 74.7762 173.747C75.5251 172.562 76.661 171.823 77.9117 171.863C79.1624 171.903 80.2484 172.712 80.9199 173.937C81.4299 174.901 81.6729 175.985 81.6239 177.075Z" fill="#3F3D56"/>
<path opacity="0.1" d="M81.8261 170.867C81.9148 168.057 80.2484 165.725 78.1042 165.657C75.9599 165.589 74.1497 167.812 74.061 170.621C73.9723 173.431 75.6387 175.764 77.7829 175.832C79.9272 175.899 81.7374 173.677 81.8261 170.867Z" fill="#3F3D56"/>
<path opacity="0.1" d="M82.0199 164.649C82.1086 161.839 80.4423 159.507 78.298 159.439C76.1537 159.371 74.3436 161.594 74.2549 164.403C74.1661 167.213 75.8325 169.546 77.9768 169.613C80.121 169.681 81.9312 167.459 82.0199 164.649Z" fill="#3F3D56"/>
<path opacity="0.1" d="M82.2162 158.428C82.3049 155.619 80.6386 153.286 78.4943 153.218C76.35 153.15 74.5399 155.373 74.4511 158.183C74.3624 160.992 76.0288 163.325 78.1731 163.393C80.3173 163.461 82.1275 161.238 82.2162 158.428Z" fill="#3F3D56"/>
<path opacity="0.1" d="M65.1352 115.285C64.6262 114.591 64.1649 113.864 63.7547 113.108L74.0101 111.744L62.9733 111.494C61.9869 109.156 61.4879 106.64 61.5068 104.102C61.5256 101.563 62.062 99.0555 63.0831 96.7319L77.6449 104.885L64.3089 94.4031C65.6585 92.2331 67.4399 90.3644 69.5422 88.9133C71.6445 87.4621 74.0228 86.4596 76.5289 85.9682C79.0351 85.4768 81.6155 85.5069 84.1095 86.0567C86.6035 86.6066 88.9577 87.6643 91.0256 89.1641C93.0936 90.664 94.8309 92.5738 96.1296 94.7747C97.4282 96.9756 98.2604 99.4205 98.5742 101.957C98.888 104.494 98.6768 107.068 97.9537 109.52C97.2306 111.971 96.0112 114.247 94.3712 116.207C95.1654 117.285 95.8408 118.446 96.3858 119.67L82.9249 126.137L97.1972 121.839C98.0954 124.805 98.2412 127.948 97.6214 130.984C97.0016 134.02 95.6358 136.854 93.6472 139.23C95.7183 142.044 96.9565 145.385 97.2202 148.87C97.4838 152.355 96.7623 155.844 95.1381 158.939C93.5139 162.033 91.0526 164.607 88.0356 166.367C85.0185 168.128 81.5675 169.002 78.0771 168.892C74.5867 168.782 71.1978 167.69 68.2978 165.743C65.3978 163.796 63.1037 161.071 61.6779 157.881C60.2521 154.69 59.752 151.162 60.235 147.7C60.7179 144.239 62.1643 140.983 64.4087 138.305C61.9338 134.943 60.6599 130.845 60.7917 126.67C60.9234 122.496 62.4532 118.487 65.1352 115.287V115.285Z" fill="#FAF000"/>
<path opacity="0.1" d="M97.9885 127.843C97.8634 132.02 96.3337 136.032 93.6472 139.23C95.7183 142.044 96.9565 145.385 97.2202 148.87C97.4838 152.355 96.7623 155.844 95.1381 158.939C93.5139 162.033 91.0526 164.607 88.0356 166.367C85.0185 168.128 81.5675 169.002 78.0771 168.892C74.5867 168.782 71.1978 167.691 68.2978 165.743C65.3978 163.796 63.1037 161.071 61.6779 157.881C60.2521 154.69 59.752 151.162 60.235 147.7C60.7179 144.239 62.1643 140.983 64.4087 138.305C62.0146 135.057 98.0584 125.752 97.9885 127.843Z" fill="black"/>
</g>
<g opacity="0.1">
<path opacity="0.1" d="M211.437 150.799C211.437 150.966 211.42 151.128 211.402 151.298C210.019 150.749 208.662 150.16 207.33 149.532C206.619 149.438 205.958 149.117 205.446 148.615C205.059 148.417 204.669 148.215 204.285 148.01C204.372 147.828 204.471 147.651 204.579 147.48C205.328 146.296 206.462 145.556 207.715 145.596C208.968 145.636 210.051 146.446 210.711 147.67C211.227 148.63 211.477 149.71 211.437 150.799Z" fill="#3F3D56"/>
<path opacity="0.1" d="M211.647 144.579C211.622 145.669 211.307 146.732 210.736 147.66C209.987 148.84 208.853 149.582 207.6 149.542L207.351 149.522C206.64 149.428 205.978 149.107 205.466 148.605C205.12 148.274 204.827 147.891 204.6 147.47C204.099 146.503 203.854 145.424 203.888 144.335C203.922 143.247 204.234 142.185 204.794 141.251C205.543 140.069 206.679 139.327 207.93 139.367C209.18 139.407 210.269 140.217 210.938 141.441C211.45 142.405 211.694 143.489 211.647 144.579Z" fill="#3F3D56"/>
<path opacity="0.1" d="M211.842 138.37C211.93 135.56 210.264 133.227 208.12 133.16C205.976 133.092 204.165 135.314 204.077 138.124C203.988 140.934 205.654 143.266 207.799 143.334C209.943 143.402 211.753 141.179 211.842 138.37Z" fill="#3F3D56"/>
<path opacity="0.1" d="M212.038 132.151C212.127 129.342 210.461 127.009 208.317 126.941C206.172 126.873 204.362 129.096 204.273 131.906C204.185 134.715 205.851 137.048 207.995 137.116C210.14 137.184 211.95 134.961 212.038 132.151Z" fill="#3F3D56"/>
<path opacity="0.1" d="M212.235 125.933C212.324 123.124 210.658 120.791 208.513 120.723C206.369 120.655 204.559 122.878 204.47 125.688C204.381 128.497 206.048 130.83 208.192 130.898C210.336 130.966 212.147 128.743 212.235 125.933Z" fill="#3F3D56"/>
<path opacity="0.1" d="M195.143 82.7891C194.633 82.0968 194.173 81.3696 193.765 80.6128L204.02 79.261L192.983 78.9936C191.997 76.655 191.498 74.1396 191.517 71.6014C191.535 69.0632 192.071 66.5554 193.091 64.2313L207.653 72.3846L194.316 61.9076C195.664 59.7322 197.444 57.8581 199.547 56.4022C201.65 54.9462 204.031 53.9396 206.539 53.4451C209.048 52.9507 211.632 52.9791 214.13 53.5284C216.627 54.0778 218.985 55.1364 221.055 56.6381C223.126 58.1399 224.865 60.0526 226.164 62.257C227.464 64.4613 228.295 66.91 228.607 69.4503C228.919 71.9906 228.704 74.5679 227.977 77.0215C227.249 79.4751 226.025 81.7523 224.379 83.7111C225.172 84.7896 225.847 85.9508 226.391 87.1743L212.93 93.6409L227.202 89.3432C228.102 92.3084 228.248 95.4514 227.629 98.4876C227.009 101.524 225.642 104.357 223.652 106.732C225.724 109.545 226.962 112.886 227.226 116.371C227.49 119.856 226.769 123.345 225.145 126.439C223.521 129.533 221.06 132.107 218.044 133.868C215.027 135.628 211.576 136.503 208.086 136.392C204.596 136.282 201.207 135.191 198.307 133.243C195.407 131.296 193.114 128.571 191.688 125.381C190.263 122.19 189.763 118.663 190.246 115.201C190.73 111.74 192.177 108.484 194.421 105.807C191.946 102.444 190.672 98.3468 190.804 94.1723C190.936 89.9978 192.466 85.9887 195.148 82.7891H195.143Z" fill="#FAF000"/>
<path opacity="0.1" d="M227.999 95.3475C227.874 99.5237 226.343 103.535 223.655 106.732C225.726 109.545 226.964 112.886 227.228 116.371C227.492 119.855 226.77 123.344 225.146 126.438C223.522 129.532 221.061 132.106 218.045 133.866C215.028 135.626 211.577 136.501 208.087 136.391C204.597 136.28 201.209 135.189 198.309 133.242C195.409 131.295 193.116 128.57 191.69 125.38C190.265 122.19 189.765 118.662 190.248 115.201C190.731 111.74 192.177 108.484 194.421 105.807C192.025 102.561 228.064 93.2536 227.999 95.3475Z" fill="black"/>
</g>
<path d="M48.3065 190.363C56.1668 190.363 62.5388 189.137 62.5388 187.624C62.5388 186.112 56.1668 184.886 48.3065 184.886C40.4462 184.886 34.0742 186.112 34.0742 187.624C34.0742 189.137 40.4462 190.363 48.3065 190.363Z" fill="#FAF000"/>
<path d="M48.0693 188.631C48.9848 188.631 49.7269 187.659 49.7269 186.46C49.7269 185.261 48.9848 184.289 48.0693 184.289C47.1538 184.289 46.4116 185.261 46.4116 186.46C46.4116 187.659 47.1538 188.631 48.0693 188.631Z" fill="#3F3D56"/>
<path d="M48.0693 185.978C48.9848 185.978 49.7269 185.006 49.7269 183.806C49.7269 182.607 48.9848 181.635 48.0693 181.635C47.1538 181.635 46.4116 182.607 46.4116 183.806C46.4116 185.006 47.1538 185.978 48.0693 185.978Z" fill="#3F3D56"/>
<path d="M48.0693 183.324C48.9848 183.324 49.7269 182.352 49.7269 181.153C49.7269 179.954 48.9848 178.981 48.0693 178.981C47.1538 178.981 46.4116 179.954 46.4116 181.153C46.4116 182.352 47.1538 183.324 48.0693 183.324Z" fill="#3F3D56"/>
<path d="M48.0693 180.671C48.9848 180.671 49.7269 179.698 49.7269 178.499C49.7269 177.3 48.9848 176.328 48.0693 176.328C47.1538 176.328 46.4116 177.3 46.4116 178.499C46.4116 179.698 47.1538 180.671 48.0693 180.671Z" fill="#3F3D56"/>
<path d="M48.0693 178.017C48.9848 178.017 49.7269 177.045 49.7269 175.845C49.7269 174.646 48.9848 173.674 48.0693 173.674C47.1538 173.674 46.4116 174.646 46.4116 175.845C46.4116 177.045 47.1538 178.017 48.0693 178.017Z" fill="#3F3D56"/>
<path d="M48.0693 175.363C48.9848 175.363 49.7269 174.391 49.7269 173.192C49.7269 171.993 48.9848 171.021 48.0693 171.021C47.1538 171.021 46.4116 171.993 46.4116 173.192C46.4116 174.391 47.1538 175.363 48.0693 175.363Z" fill="#3F3D56"/>
<path d="M48.0693 172.71C48.9848 172.71 49.7269 171.738 49.7269 170.538C49.7269 169.339 48.9848 168.367 48.0693 168.367C47.1538 168.367 46.4116 169.339 46.4116 170.538C46.4116 171.738 47.1538 172.71 48.0693 172.71Z" fill="#3F3D56"/>
<path d="M54.2731 152.378C54.499 152.089 54.705 151.785 54.8897 151.468L50.5359 150.751L55.2442 150.789C55.6957 149.805 55.9421 148.739 55.9683 147.656C55.9945 146.573 55.7999 145.497 55.3965 144.492L49.0779 147.773L54.9047 143.477C54.3583 142.534 53.6238 141.713 52.7469 141.066C51.8699 140.419 50.8693 139.96 49.8072 139.716C48.7451 139.473 47.6444 139.451 46.5736 139.652C45.5027 139.853 44.4846 140.272 43.5827 140.884C42.6808 141.496 41.9143 142.287 41.331 143.208C40.7477 144.129 40.36 145.16 40.1922 146.238C40.0243 147.315 40.0799 148.416 40.3553 149.471C40.6308 150.526 41.1203 151.513 41.7933 152.37C41.4412 152.82 41.1382 153.306 40.8896 153.82L46.5415 156.758L40.5151 154.734C40.0918 155.986 39.9869 157.324 40.2101 158.627C40.4333 159.929 40.9774 161.156 41.7933 162.195C40.8727 163.367 40.3001 164.775 40.1411 166.258C39.982 167.74 40.2429 169.237 40.8939 170.578C41.545 171.919 42.5598 173.05 43.8225 173.841C45.0852 174.632 46.5448 175.052 48.0344 175.052C49.5241 175.052 50.9837 174.632 52.2463 173.841C53.509 173.05 54.5239 171.919 55.1749 170.578C55.8259 169.237 56.0868 167.74 55.9278 166.258C55.7687 164.775 55.1962 163.367 54.2756 162.195C55.3753 160.794 55.9732 159.064 55.9732 157.283C55.9732 155.501 55.3753 153.771 54.2756 152.37L54.2731 152.378Z" fill="#FAF000"/>
<path opacity="0.1" d="M40.0957 157.29C40.0928 159.072 40.6909 160.803 41.7933 162.203C40.8727 163.375 40.3001 164.783 40.1411 166.265C39.982 167.747 40.2429 169.245 40.894 170.586C41.545 171.927 42.5598 173.058 43.8225 173.849C45.0852 174.64 46.5448 175.059 48.0344 175.059C49.5241 175.059 50.9837 174.64 52.2464 173.849C53.509 173.058 54.5239 171.927 55.1749 170.586C55.8259 169.245 56.0868 167.747 55.9278 166.265C55.7687 164.783 55.1962 163.375 54.2756 162.203C55.3366 160.851 40.0957 156.398 40.0957 157.29Z" fill="black"/>
<path d="M86.5022 129.235V185.705C82.3814 185.504 78.2631 185.261 74.1473 184.978L72.2725 184.846V129.235C72.2725 128.945 72.3294 128.659 72.4401 128.391C72.5507 128.124 72.7129 127.881 72.9174 127.676C73.1218 127.472 73.3646 127.31 73.6317 127.199C73.8989 127.088 74.1852 127.031 74.4743 127.031H84.3004C84.5895 127.031 84.8758 127.088 85.143 127.199C85.4101 127.31 85.6529 127.472 85.8573 127.676C86.0618 127.881 86.224 128.124 86.3346 128.391C86.4453 128.659 86.5022 128.945 86.5022 129.235Z" fill="#3F3D56"/>
<path d="M104.726 186.407V91.5046C104.726 90.9201 104.958 90.3596 105.371 89.9463C105.784 89.533 106.344 89.3008 106.928 89.3008H116.754C117.043 89.3008 117.329 89.3578 117.597 89.4685C117.864 89.5793 118.106 89.7416 118.311 89.9463C118.515 90.1509 118.678 90.3939 118.788 90.6613C118.899 90.9286 118.956 91.2152 118.956 91.5046V186.655L104.726 186.407Z" fill="#3F3D56"/>
<path d="M137.18 186.705V111.244C137.18 110.66 137.412 110.099 137.825 109.686C138.238 109.273 138.798 109.041 139.382 109.041H149.208C149.792 109.041 150.352 109.273 150.765 109.686C151.178 110.099 151.41 110.66 151.41 111.244V186.543L137.18 186.705Z" fill="#3F3D56"/>
<path d="M183.864 55.2736V185.793C179.12 185.928 174.377 186.054 169.634 186.173V55.2736C169.634 54.6891 169.866 54.1285 170.279 53.7152C170.692 53.3019 171.252 53.0697 171.836 53.0697H181.662C182.246 53.0697 182.806 53.3019 183.219 53.7152C183.632 54.1285 183.864 54.6891 183.864 55.2736Z" fill="#3F3D56"/>
<path d="M216.318 81.5099V184.706C211.574 184.936 206.831 185.098 202.088 185.243V81.5099C202.088 80.9254 202.32 80.3648 202.733 79.9515C203.146 79.5382 203.706 79.306 204.29 79.306H214.116C214.7 79.306 215.26 79.5382 215.673 79.9515C216.086 80.3648 216.318 80.9254 216.318 81.5099Z" fill="#3F3D56"/>
<path d="M79.5117 96.3022L111.966 60.0711L144.42 78.3116L176.873 22.3408L209.327 49.0768" stroke="#3F3D56" stroke-width="7" stroke-miterlimit="10" stroke-linecap="round"/>
<path d="M79.3875 103.298C83.248 103.298 86.3776 100.166 86.3776 96.3021C86.3776 92.4382 83.248 89.3058 79.3875 89.3058C75.527 89.3058 72.3975 92.4382 72.3975 96.3021C72.3975 100.166 75.527 103.298 79.3875 103.298Z" fill="#FAF000"/>
<path d="M111.841 67.0674C115.702 67.0674 118.831 63.935 118.831 60.0711C118.831 56.2071 115.702 53.0747 111.841 53.0747C107.981 53.0747 104.851 56.2071 104.851 60.0711C104.851 63.935 107.981 67.0674 111.841 67.0674Z" fill="#FAF000"/>
<path d="M144.295 85.3079C148.155 85.3079 151.285 82.1755 151.285 78.3115C151.285 74.4476 148.155 71.3152 144.295 71.3152C140.434 71.3152 137.305 74.4476 137.305 78.3115C137.305 82.1755 140.434 85.3079 144.295 85.3079Z" fill="#FAF000"/>
<path d="M176.749 29.3372C180.609 29.3372 183.739 26.2048 183.739 22.3408C183.739 18.4769 180.609 15.3445 176.749 15.3445C172.888 15.3445 169.759 18.4769 169.759 22.3408C169.759 26.2048 172.888 29.3372 176.749 29.3372Z" fill="#FAF000"/>
<path d="M239.16 88.806C243.021 88.806 246.15 85.6737 246.15 81.8097C246.15 77.9457 243.021 74.8134 239.16 74.8134C235.299 74.8134 232.17 77.9457 232.17 81.8097C232.17 85.6737 235.299 88.806 239.16 88.806Z" fill="#FAF000"/>
<path opacity="0.1" d="M58.3372 181.348C60.9127 181.348 63.0006 180.994 63.0006 180.558C63.0006 180.122 60.9127 179.769 58.3372 179.769C55.7617 179.769 53.6738 180.122 53.6738 180.558C53.6738 180.994 55.7617 181.348 58.3372 181.348Z" fill="#FAF000"/>
<path d="M55.2065 176.892C55.2065 176.892 57.8653 176.81 58.6666 176.238C59.468 175.666 62.7583 174.988 62.958 175.901C63.1578 176.813 66.9524 180.458 63.9566 180.483C60.9609 180.508 56.979 180.013 56.1802 179.526C55.3813 179.039 55.2065 176.892 55.2065 176.892Z" fill="#A8A8A8"/>
<path opacity="0.2" d="M64.004 180.163C61.0083 180.188 57.029 179.696 56.2276 179.209C55.6185 178.837 55.3763 177.505 55.2939 176.89H55.2065C55.2065 176.89 55.3738 179.036 56.1752 179.524C56.9765 180.011 60.9484 180.506 63.9516 180.481C64.8179 180.481 65.1175 180.166 65.1 179.709C64.9802 179.986 64.6506 180.158 64.004 180.163Z" fill="black"/>
<path opacity="0.1" d="M265.573 188.704C270.303 188.704 274.138 188.055 274.138 187.255C274.138 186.454 270.303 185.805 265.573 185.805C260.842 185.805 257.007 186.454 257.007 187.255C257.007 188.055 260.842 188.704 265.573 188.704Z" fill="#FAF000"/>
<path d="M259.828 180.521C259.828 180.521 264.714 180.371 266.187 179.321C267.659 178.272 273.701 177.02 274.065 178.702C274.43 180.383 281.41 187.072 275.893 187.117C270.376 187.162 263.076 186.258 261.606 185.368C260.135 184.479 259.828 180.521 259.828 180.521Z" fill="#A8A8A8"/>
<path opacity="0.2" d="M275.985 186.533C270.468 186.577 263.169 185.673 261.698 184.783C260.58 184.101 260.133 181.653 259.983 180.536H259.821C259.821 180.536 260.13 184.481 261.598 185.376C263.066 186.27 270.371 187.177 275.885 187.125C277.478 187.125 278.027 186.545 277.997 185.705C277.775 186.205 277.169 186.523 275.985 186.533Z" fill="black"/>
<path d="M212.099 86.1C212.145 86.5376 212.319 86.952 212.598 87.2919C212.96 87.7017 213.502 87.8891 213.989 88.1339C215.248 88.7793 216.211 89.8866 216.675 91.2248C217.506 93.6535 217.613 96.2222 218.672 98.566C219.73 100.91 220.974 103.161 221.887 105.562C222.407 106.924 222.821 108.341 223.583 109.58C223.951 110.19 224.421 110.731 224.973 111.182C224.916 112.061 224.893 112.931 224.898 113.811C225.067 113.807 225.234 113.847 225.383 113.925C225.532 114.004 225.659 114.119 225.752 114.26C225.937 114.545 226.064 114.863 226.126 115.197C226.468 116.614 226.047 118.123 226.354 119.548C227.197 123.509 226.938 127.627 225.605 131.451C225.263 132.421 224.833 135.629 225.198 136.591C226.556 136.454 227.759 137.288 229.03 137.84C229.133 138.594 229.071 139.361 228.85 140.089C228.393 141.406 228.396 142.838 228.403 144.23L228.466 154.539C228.466 155.846 228.483 157.17 228.81 158.437C229.182 159.864 229.963 161.318 229.938 162.792C229.871 165.966 231.369 168.989 231.249 172.138C231.227 172.742 231.144 173.342 231.087 173.942C230.939 175.539 230.98 177.148 231.207 178.737C231.661 181.9 232.862 185.011 232.562 188.192C232.542 188.407 232.47 188.691 232.268 188.774C232.517 189.056 232.782 189.336 233.052 189.603C232.997 189.694 232.923 189.772 232.834 189.831C232.539 189.985 232.213 190.07 231.881 190.081C231.49 190.091 231.112 190.214 230.79 190.435C230.556 190.66 230.397 190.952 230.335 191.27C230.247 191.585 230.227 191.915 230.279 192.238C230.331 192.56 230.452 192.868 230.635 193.139C230.858 193.42 231.149 193.638 231.481 193.774C232.635 194.273 233.958 193.911 235.161 193.546L239.874 192.117C240.162 192.057 240.427 191.919 240.641 191.717C240.739 191.602 240.803 191.462 240.828 191.312C241.869 191.562 243.012 191.255 244.073 190.938L248.787 189.506C249.075 189.447 249.34 189.309 249.553 189.106C249.638 189.003 249.699 188.882 249.732 188.753C249.766 188.623 249.77 188.488 249.745 188.357C249.78 188.342 249.815 188.332 249.85 188.314C250.21 188.152 250.599 187.834 250.512 187.452C250.449 187.202 250.2 187.057 250.092 186.827C250.042 186.678 250.031 186.518 250.062 186.363C250.093 186.208 250.163 186.064 250.267 185.945C250.452 185.695 250.701 185.488 250.871 185.226C251.415 184.391 251.046 183.294 250.841 182.317C250.399 180.231 250.809 178.052 250.529 175.938C250.434 175.226 250.262 174.526 250.125 173.819C249.834 172.148 249.641 170.461 249.548 168.767C249.368 166.348 248.697 163.964 249.081 161.566C249.268 160.158 249.347 158.738 249.318 157.318C249.346 156.413 249.306 155.508 249.201 154.609C249.104 153.94 248.932 153.282 248.857 152.61C248.796 151.855 248.783 151.096 248.817 150.339C248.851 148.651 248.695 146.965 248.352 145.312C247.853 143.04 246.914 140.866 246.515 138.59C246.65 138.62 246.785 138.65 246.914 138.685C246.929 136.936 245.399 133.133 244.832 131.474C244.749 131.271 244.699 131.056 244.683 130.837C244.717 130.548 244.769 130.262 244.84 129.98C244.912 129.375 244.59 128.8 244.503 128.195C244.469 127.77 244.5 127.342 244.595 126.926C244.997 124.69 245.496 122.471 245.996 120.255C246.213 119.452 246.289 118.617 246.218 117.788C246.16 117.349 246.197 116.903 246.326 116.479C246.455 116.055 246.674 115.664 246.967 115.332C247.186 115.13 247.373 114.895 247.521 114.635C247.604 114.412 247.641 114.175 247.631 113.938C247.621 112.91 247.47 111.889 247.181 110.902C247.621 110.105 247.783 109.125 247.91 108.201C248.19 106.16 248.47 104.108 248.46 102.047C248.482 100.947 248.33 99.8506 248.01 98.7984C247.777 98.1485 247.491 97.5184 247.157 96.9143C245.843 94.3832 244.588 91.7196 242.93 89.4008C242.431 88.6961 242.745 87.7242 242.78 86.8546C242.818 85.8052 242.403 84.7982 241.996 83.8337C241.789 83.2401 241.47 82.6914 241.058 82.217C240.918 82.0633 240.749 81.9398 240.56 81.8538C240.371 81.7679 240.167 81.7214 239.959 81.7173C239.724 81.746 239.498 81.8249 239.296 81.9486C239.094 82.0724 238.921 82.238 238.788 82.4344C238.486 82.846 238.269 83.3134 238.149 83.8097C238.028 84.3059 238.007 84.821 238.087 85.3254C238.253 86.335 238.692 87.2797 239.358 88.0565C239.679 88.4473 240.047 88.7973 240.454 89.0984C240.866 90.4111 241.282 91.7229 241.702 93.0339C242.361 95.1203 243.02 97.2167 243.949 99.1907C244.221 99.7629 244.52 100.345 244.553 100.977C244.588 101.659 244.303 102.309 244.076 102.951C243.597 104.29 243.326 105.693 243.272 107.114C243.199 107.146 243.129 107.185 243.062 107.229C242.276 107.744 242.029 108.866 241.21 109.325C240.733 109.593 240.154 109.575 239.62 109.698C239.572 109.698 239.525 109.723 239.475 109.738C239.455 109.638 239.435 109.54 239.423 109.438C239.415 109.374 239.415 109.309 239.423 109.245C240.695 108.545 241.765 107.525 242.526 106.287C242.686 106.058 242.81 105.805 242.893 105.537C242.96 105.217 242.973 104.887 242.93 104.563C242.888 103.479 242.734 102.403 242.468 101.352C242.202 100.296 241.619 99.3462 240.798 98.6309C240.389 98.3011 239.917 98.0537 239.51 97.7214C238.716 97.0793 238.172 96.1298 237.263 95.6525C236.685 95.3706 236.025 95.3043 235.402 95.4655C234.78 95.6267 234.235 96.0049 233.865 96.532C233.745 96.7758 233.575 96.9919 233.366 97.1667C233.207 97.242 233.052 97.3254 232.902 97.4166C232.627 97.6365 232.612 98.0587 232.702 98.4011C232.872 99.1045 232.968 99.8239 232.987 100.547C232.181 101.494 231.737 102.696 231.734 103.939C231.732 105.183 232.17 106.386 232.972 107.336C232.972 107.801 232.972 108.266 232.954 108.731C232.954 108.818 232.954 108.908 232.937 108.996C232.649 108.895 232.391 108.723 232.188 108.496C231.908 108.146 231.858 107.631 231.516 107.344C231.27 107.182 230.99 107.079 230.697 107.044C229.97 106.879 229.289 106.555 228.7 106.097C228.238 105.74 227.759 105.282 227.22 105.178C226.289 103.431 225.203 101.771 223.974 100.22C223.663 99.8529 223.379 99.4628 223.126 99.0532C222.589 98.1162 222.429 97.0143 222.09 95.9873C221.141 93.1088 218.774 90.8 218.198 87.8216C217.988 86.7422 217.304 85.8027 216.835 84.8082C216.518 84.136 216.168 83.4264 215.534 83.0416C214.718 82.5419 213.589 82.7717 212.91 83.4439C212.581 83.7953 212.337 84.2174 212.197 84.6778C212.056 85.1382 212.023 85.6247 212.099 86.1ZM241.739 187.22C241.444 187.374 241.118 187.459 240.786 187.469C240.618 187.487 240.451 187.514 240.286 187.549C240.224 187.025 240.189 186.493 240.149 185.975C240.017 184.279 239.752 182.595 239.49 180.913C239.215 179.164 239.085 177.25 238.491 175.571C237.535 172.837 236.567 170.021 236.689 167.125C236.716 166.468 236.799 165.816 236.834 165.161C236.914 163.54 236.686 161.883 237.083 160.306C237.261 159.589 237.563 158.904 237.677 158.175C237.751 157.516 237.759 156.851 237.702 156.191C237.593 153.898 237.784 151.601 238.269 149.357C238.733 149.964 238.886 150.749 239.018 151.501L239.954 156.583C240.511 159.599 241.003 162.797 242.478 165.481C242.271 166.448 242.066 167.48 242.408 168.404C242.556 168.804 242.798 169.154 242.948 169.559C243.197 170.231 243.162 170.971 243.237 171.683C243.399 173.182 244.018 174.656 243.564 176.103C243.097 177.595 242.793 179.133 242.658 180.691C242.633 181.124 242.583 181.555 242.508 181.982C242.428 182.367 242.298 182.732 242.226 183.127C242.126 183.681 242.151 184.25 242.298 184.793C242.411 185.094 242.479 185.41 242.503 185.73C242.503 186.05 242.111 186.28 241.797 186.33C241.889 186.45 241.989 186.565 242.091 186.677C242.031 186.89 241.908 187.078 241.739 187.22Z" fill="url(#paint0_linear)"/>
<path d="M231.881 190.103C231.49 190.113 231.111 190.237 230.79 190.458C230.555 190.68 230.396 190.97 230.335 191.287C230.247 191.6 230.228 191.927 230.279 192.248C230.331 192.568 230.453 192.873 230.635 193.141C230.858 193.422 231.149 193.639 231.481 193.774C232.635 194.273 233.958 193.909 235.161 193.546L239.874 192.127C240.162 192.068 240.427 191.931 240.641 191.73C240.77 191.555 240.842 191.344 240.846 191.126C240.849 190.908 240.784 190.694 240.661 190.515C240.407 190.163 240.062 189.887 239.662 189.718C238.197 189.004 236.544 188.841 234.934 188.811C234.335 188.811 233.743 188.666 233.336 189.129C233.121 189.378 233.161 189.646 232.837 189.858C232.54 190.01 232.213 190.093 231.881 190.103Z" fill="#3F3D56"/>
<path d="M240.785 187.509C240.395 187.521 240.016 187.644 239.694 187.864C239.46 188.087 239.301 188.377 239.24 188.694C239.151 189.006 239.132 189.335 239.184 189.655C239.236 189.976 239.357 190.282 239.539 190.55C239.763 190.829 240.055 191.046 240.386 191.18C241.542 191.68 242.862 191.317 244.066 190.955L248.779 189.533C249.066 189.475 249.331 189.337 249.545 189.136C249.675 188.962 249.746 188.751 249.75 188.533C249.754 188.316 249.689 188.103 249.565 187.924C249.312 187.572 248.966 187.296 248.567 187.127C247.099 186.413 245.446 186.248 243.836 186.218C243.237 186.218 242.648 186.075 242.238 186.537C242.023 186.787 242.063 187.052 241.739 187.265C241.444 187.418 241.118 187.502 240.785 187.509Z" fill="#3F3D56"/>
<path d="M236.689 136.311C239.466 136.032 242.26 135.953 245.049 136.076C245.233 136.074 245.416 136.103 245.591 136.161C246.205 136.411 246.3 137.216 246.357 137.873C246.607 140.542 247.77 143.028 248.354 145.641C248.698 147.284 248.853 148.961 248.819 150.639C248.785 151.388 248.798 152.14 248.859 152.888C248.934 153.555 249.108 154.209 249.203 154.874C249.309 155.767 249.348 156.666 249.321 157.565C249.349 158.974 249.27 160.383 249.083 161.78C248.699 164.162 249.371 166.528 249.55 168.937C249.64 170.621 249.829 172.299 250.117 173.962C250.254 174.664 250.427 175.358 250.521 176.065C250.801 178.167 250.392 180.331 250.833 182.405C251.038 183.374 251.408 184.464 250.863 185.293C250.694 185.543 250.444 185.755 250.259 186.008C250.156 186.126 250.085 186.269 250.054 186.423C250.023 186.577 250.034 186.736 250.085 186.885C250.192 187.112 250.442 187.262 250.504 187.504C250.601 187.887 250.202 188.199 249.842 188.362C247.134 189.586 243.641 188.724 241.814 186.378C242.128 186.328 242.513 186.1 242.52 185.78C242.496 185.462 242.427 185.149 242.316 184.851C242.169 184.312 242.144 183.747 242.243 183.197C242.316 182.812 242.445 182.447 242.525 182.06C242.6 181.635 242.65 181.206 242.675 180.775C242.81 179.228 243.114 177.699 243.581 176.218C244.036 174.781 243.416 173.327 243.254 171.828C243.179 171.118 243.212 170.386 242.965 169.716C242.815 169.321 242.573 168.967 242.425 168.572C242.083 167.65 242.288 166.625 242.495 165.666C241.02 163 240.528 159.821 239.971 156.826L239.035 151.778C238.895 151.029 238.743 150.251 238.286 149.647C237.801 151.875 237.61 154.158 237.72 156.436C237.776 157.092 237.768 157.752 237.695 158.407C237.58 159.132 237.278 159.814 237.1 160.524C236.714 162.09 236.941 163.734 236.851 165.346C236.816 165.998 236.733 166.645 236.706 167.298C236.584 170.176 237.552 172.975 238.508 175.691C239.095 177.357 239.225 179.251 239.507 180.995C239.757 182.667 240.034 184.339 240.166 186.025C240.288 187.574 240.343 189.251 241.307 190.468C240.426 191.04 239.517 191.622 238.486 191.82C237.284 192.008 236.055 191.769 235.011 191.145C233.973 190.524 233.045 189.734 232.265 188.809C232.467 188.739 232.539 188.444 232.559 188.232C232.859 185.068 231.658 181.985 231.204 178.837C230.977 177.259 230.937 175.661 231.084 174.074C231.141 173.477 231.224 172.88 231.246 172.28C231.366 169.154 229.861 166.143 229.916 163.015C229.941 161.548 229.167 160.104 228.787 158.687C228.46 157.438 228.45 156.113 228.443 154.814L228.38 144.569C228.38 143.185 228.38 141.766 228.827 140.459C229.376 138.885 228.747 137.078 228.652 135.414C231.247 136.237 233.977 136.542 236.689 136.311Z" fill="#696791"/>
<path d="M227.789 106.877C226.739 104.73 225.458 102.704 223.967 100.837C223.655 100.473 223.371 100.085 223.118 99.6779C222.581 98.7459 222.421 97.6515 222.082 96.632C221.133 93.7735 218.767 91.4772 218.19 88.5213C217.98 87.4468 217.296 86.5223 216.827 85.5229C216.51 84.8557 216.16 84.1511 215.526 83.7738C214.71 83.274 213.581 83.5039 212.902 84.1736C212.576 84.522 212.333 84.9409 212.194 85.398C212.055 85.855 212.022 86.338 212.098 86.8097C212.145 87.2449 212.319 87.6568 212.598 87.9941C212.96 88.4013 213.501 88.5862 213.988 88.8311C215.246 89.4693 216.209 90.5697 216.674 91.902C217.506 94.3133 217.613 96.8669 218.672 99.1957C219.73 101.524 220.973 103.758 221.887 106.14C222.406 107.491 222.821 108.888 223.582 110.137C224.344 111.387 225.532 112.434 226.967 112.621C226.958 111.715 227.095 110.814 227.374 109.953C227.686 108.968 228.241 107.809 227.789 106.877Z" fill="#A0616A"/>
<path d="M243.245 108.746C243.18 106.979 243.456 105.216 244.056 103.553C244.286 102.916 244.555 102.269 244.533 101.592C244.5 100.962 244.201 100.385 243.929 99.8153C242.99 97.8539 242.331 95.7749 241.682 93.701L240.434 89.7906C240.027 89.4919 239.658 89.1435 239.338 88.7536C238.672 87.9836 238.232 87.0445 238.067 86.04C237.987 85.5392 238.008 85.0276 238.129 84.535C238.249 84.0424 238.467 83.5789 238.768 83.1715C238.901 82.9758 239.075 82.8108 239.277 82.6876C239.479 82.5643 239.704 82.4857 239.939 82.4569C240.147 82.4615 240.351 82.5081 240.54 82.594C240.728 82.6799 240.898 82.8033 241.038 82.9566C241.449 83.4269 241.768 83.9713 241.976 84.5608C242.383 85.5203 242.798 86.5198 242.76 87.5592C242.725 88.4238 242.403 89.3883 242.91 90.0904C244.568 92.3942 245.823 95.0403 247.137 97.5565C247.471 98.1561 247.757 98.782 247.99 99.428C248.311 100.475 248.463 101.567 248.44 102.661C248.44 104.708 248.17 106.747 247.89 108.776C247.713 110.047 247.481 111.432 246.52 112.274C245.521 110.994 244.518 109.745 243.245 108.746Z" fill="#A0616A"/>
<path d="M236.894 109.72C239.754 109.72 242.074 107.399 242.074 104.535C242.074 101.672 239.754 99.3506 236.894 99.3506C234.033 99.3506 231.713 101.672 231.713 104.535C231.713 107.399 234.033 109.72 236.894 109.72Z" fill="#A0616A"/>
<path d="M239.403 109.995C239.527 110.932 240.029 111.772 240.518 112.581C240.813 113.081 241.19 113.613 241.767 113.668C240.266 114.456 238.689 115.091 237.061 115.562C236.507 115.748 235.927 115.842 235.343 115.839C234.849 115.802 234.364 115.678 233.913 115.472C232.926 115.042 232.049 114.393 231.349 113.574C230.648 112.755 230.143 111.787 229.871 110.745C230.516 110.762 231.161 110.712 231.796 110.597C232.158 110.569 232.496 110.403 232.74 110.132C232.884 109.879 232.952 109.589 232.934 109.298C232.959 108.433 232.962 107.566 232.934 106.702C234.207 106.62 235.484 106.778 236.699 107.166C237.198 107.329 237.697 107.524 238.197 107.651C238.511 107.731 239.378 107.651 239.61 107.834C239.992 108.091 239.315 109.358 239.403 109.995Z" fill="#A0616A"/>
<path d="M237.126 113.146C237.183 112.463 237.453 111.815 237.898 111.294C238.344 110.773 238.942 110.406 239.607 110.245C240.141 110.125 240.721 110.14 241.197 109.875C242.016 109.418 242.263 108.303 243.05 107.791C243.836 107.279 244.952 107.564 245.636 108.211C246.32 108.858 246.667 109.78 246.947 110.682C247.364 111.902 247.591 113.179 247.618 114.468C247.629 114.703 247.591 114.939 247.509 115.16C247.36 115.418 247.174 115.651 246.954 115.852C246.661 116.181 246.443 116.569 246.314 116.991C246.184 117.412 246.147 117.856 246.205 118.293C246.276 119.116 246.201 119.945 245.983 120.742C245.484 122.946 244.985 125.147 244.583 127.371C244.488 127.78 244.457 128.202 244.49 128.62C244.568 129.222 244.9 129.792 244.827 130.394C244.757 130.675 244.704 130.959 244.67 131.246C244.686 131.464 244.737 131.677 244.82 131.879C245.387 133.525 246.917 137.298 246.902 139.042C244.243 138.36 240.324 138.208 237.578 138.195C236.822 138.187 236.067 138.221 235.316 138.295C233.511 138.49 231.664 139.017 229.914 138.53C228.288 138.078 226.85 136.781 225.17 136.943C224.806 135.989 225.235 132.803 225.577 131.839C226.911 128.041 227.17 123.948 226.326 120.012C226.019 118.598 226.441 117.096 226.099 115.692C226.036 115.36 225.909 115.043 225.724 114.76C225.631 114.619 225.504 114.505 225.355 114.426C225.206 114.348 225.039 114.309 224.871 114.313C224.84 112.054 225.049 109.798 225.495 107.584C225.66 106.797 225.994 105.867 226.8 105.732C227.514 105.61 228.114 106.214 228.688 106.657C229.277 107.113 229.958 107.434 230.685 107.596C230.977 107.631 231.258 107.734 231.504 107.896C231.846 108.181 231.896 108.693 232.175 109.04C232.675 109.663 233.791 109.61 234.145 110.327C234.223 110.541 234.285 110.76 234.332 110.982C234.5 111.408 234.786 111.777 235.156 112.046C235.712 112.57 236.389 112.947 237.126 113.146Z" fill="#F86D70"/>
<path d="M232.684 99.0233C232.594 98.681 232.609 98.2737 232.884 98.0438C233.021 97.9364 233.201 97.8964 233.348 97.7939C233.556 97.6193 233.726 97.4042 233.847 97.1618C234.22 96.64 234.765 96.2671 235.386 96.1093C236.007 95.9515 236.664 96.019 237.24 96.2997C238.141 96.772 238.685 97.7165 239.487 98.3536C239.894 98.6835 240.366 98.9283 240.775 99.2582C241.595 99.9671 242.178 100.911 242.445 101.962C242.71 103.005 242.865 104.074 242.907 105.15C242.95 105.473 242.937 105.801 242.87 106.12C242.787 106.387 242.663 106.64 242.503 106.869C241.679 108.119 240.593 109.253 239.232 109.898C237.872 110.542 236.216 110.647 234.873 109.973C234.738 109.918 234.622 109.825 234.539 109.705C234.463 109.523 234.444 109.321 234.486 109.128C234.559 108.364 234.408 107.596 234.052 106.917C233.802 106.417 233.428 105.987 233.228 105.47C233.043 104.891 232.963 104.283 232.994 103.676C232.971 102.104 233.078 100.538 232.684 99.0233Z" fill="#2D293D"/>
</g>
<defs>
<linearGradient id="paint0_linear" x1="251.148" y1="137.868" x2="212.066" y2="137.868" gradientUnits="userSpaceOnUse">
<stop stop-color="#808080" stop-opacity="0.25"/>
<stop offset="0.54" stop-color="#808080" stop-opacity="0.12"/>
<stop offset="1" stop-color="#808080" stop-opacity="0.1"/>
</linearGradient>
<clipPath id="clip0">
<rect width="278" height="196" fill="white"/>
</clipPath>
</defs>
</svg>
