<svg width="92" height="53" viewBox="0 0 92 53" fill="none" xmlns="http://www.w3.org/2000/svg">
<path d="M45.4106 41.5294C42.7974 41.5294 40.2896 41.1837 37.8872 40.4922C35.4966 39.8126 33.2876 38.7637 31.2603 37.3458C29.2329 35.9395 27.7915 34.4629 26.936 32.9161L28.9224 32.2305C30.3052 34.0352 32.4497 35.4825 35.356 36.5723C38.2739 37.6739 41.5083 38.2364 45.0591 38.2598L45.6216 38.2598C48.0825 38.2598 50.3677 38.002 52.4771 37.4864C54.5981 36.9708 56.4966 36.2501 58.1724 35.3243C59.8481 34.4102 61.1548 33.379 62.0923 32.2305L64.0786 32.9161C63.2231 34.463 61.7935 35.9337 59.7896 37.3282C57.7856 38.7344 55.5767 39.7833 53.1626 40.4747C50.7485 41.1778 48.1646 41.5294 45.4106 41.5294Z" fill="#DDD300"/>
<path d="M18.7251 24.2637C18.7251 27.1583 18.063 29.4903 16.7388 31.2598C15.4146 33.0294 13.6216 33.9141 11.3599 33.9141C9.05127 33.9141 7.23486 33.1817 5.91064 31.7169V40.8751H2.65869V14.543H5.62939L5.7876 16.6524C7.11182 15.0118 8.95166 14.1915 11.3071 14.1915C13.5923 14.1915 15.397 15.0528 16.7212 16.7755C18.0571 18.4981 18.7251 20.8946 18.7251 23.9649V24.2637ZM15.4731 23.8946C15.4731 21.7501 15.0161 20.0567 14.1021 18.8145C13.188 17.5723 11.9341 16.9512 10.3403 16.9512C8.37158 16.9512 6.89502 17.8243 5.91064 19.5704V28.6583C6.8833 30.3926 8.37158 31.2598 10.3755 31.2598C11.9341 31.2598 13.1704 30.6446 14.0845 29.4141C15.0103 28.1719 15.4731 26.3321 15.4731 23.8946ZM72.5142 23.8946C72.5142 20.9297 73.1997 18.5743 74.5708 16.8282C75.9419 15.0704 77.7583 14.1915 80.02 14.1915C82.3403 14.1915 84.1509 15.0118 85.4517 16.6524L85.6099 14.543H88.5806V33.1055C88.5806 35.5665 87.8481 37.5059 86.3833 38.9239C84.9302 40.3419 82.9731 41.0508 80.5122 41.0508C79.1411 41.0508 77.7993 40.7579 76.4868 40.1719C75.1743 39.586 74.1724 38.7833 73.481 37.7637L75.1685 35.8126C76.563 37.5352 78.2681 38.3965 80.2837 38.3965C81.8657 38.3965 83.0962 37.9512 83.9751 37.0606C84.8657 36.17 85.311 34.9161 85.311 33.2989V31.6641C84.0103 33.1641 82.2349 33.9141 79.9849 33.9141C77.7583 33.9141 75.9536 33.0176 74.5708 31.2247C73.1997 29.4317 72.5142 26.9883 72.5142 23.8946ZM75.7837 24.2637C75.7837 26.4083 76.2231 28.0958 77.1021 29.3262C77.981 30.545 79.2114 31.1544 80.7935 31.1544C82.8442 31.1544 84.3501 30.2227 85.311 28.3594V19.6758C84.3149 17.8594 82.8208 16.9512 80.8286 16.9512C79.2466 16.9512 78.0103 17.5665 77.1196 18.7969C76.229 20.0274 75.7837 21.8497 75.7837 24.2637Z" fill="black"/>
<path d="M20.5181 21.1055C20.5181 19.8633 20.7603 18.7462 21.2446 17.754C21.7368 16.7618 22.4165 15.9962 23.2837 15.4571C24.1587 14.918 25.1548 14.6485 26.272 14.6485C27.9985 14.6485 29.3931 15.2462 30.4556 16.4415C31.5259 17.6368 32.061 19.2266 32.061 21.211V21.3633C32.061 22.5977 31.8228 23.7071 31.3462 24.6915C30.8774 25.668 30.2017 26.4297 29.3188 26.9766C28.4438 27.5235 27.436 27.7969 26.2954 27.7969C24.5767 27.7969 23.1821 27.1993 22.1118 26.004C21.0493 24.8087 20.5181 23.2266 20.5181 21.2579V21.1055ZM22.6978 21.3633C22.6978 22.7696 23.022 23.8985 23.6704 24.7501C24.3267 25.6016 25.2017 26.0274 26.2954 26.0274C27.397 26.0274 28.272 25.5977 28.9204 24.7383C29.5688 23.8712 29.8931 22.6602 29.8931 21.1055C29.8931 19.7149 29.561 18.5899 28.897 17.7305C28.2407 16.8633 27.3657 16.4297 26.272 16.4297C25.2017 16.4297 24.3384 16.8555 23.6821 17.7071C23.0259 18.5587 22.6978 19.7774 22.6978 21.3633ZM45.3032 24.3868L48.2563 14.8829H50.5767L45.479 29.5196C44.6899 31.629 43.436 32.6837 41.7173 32.6837L41.3071 32.6485L40.4985 32.4962V30.7383L41.0845 30.7852C41.8188 30.7852 42.3892 30.6368 42.7954 30.3399C43.2095 30.043 43.5493 29.5001 43.8149 28.711L44.2954 27.4219L39.772 14.8829H42.1392L45.3032 24.3868ZM58.3228 21.1055C58.3228 19.8633 58.5649 18.7462 59.0493 17.754C59.5415 16.7618 60.2212 15.9962 61.0884 15.4571C61.9634 14.918 62.9595 14.6485 64.0767 14.6485C65.8032 14.6485 67.1978 15.2462 68.2603 16.4415C69.3306 17.6368 69.8657 19.2266 69.8657 21.211V21.3633C69.8657 22.5977 69.6274 23.7071 69.1509 24.6915C68.6821 25.668 68.0063 26.4297 67.1235 26.9766C66.2485 27.5235 65.2407 27.7969 64.1001 27.7969C62.3813 27.7969 60.9868 27.1993 59.9165 26.004C58.854 24.8087 58.3228 23.2266 58.3228 21.2579V21.1055ZM60.5024 21.3633C60.5024 22.7696 60.8267 23.8985 61.4751 24.7501C62.1313 25.6016 63.0063 26.0274 64.1001 26.0274C65.2017 26.0274 66.0767 25.5977 66.7251 24.7383C67.3735 23.8712 67.6978 22.6602 67.6978 21.1055C67.6978 19.7149 67.3657 18.5899 66.7017 17.7305C66.0454 16.8633 65.1704 16.4297 64.0767 16.4297C63.0063 16.4297 62.1431 16.8555 61.4868 17.7071C60.8306 18.5587 60.5024 19.7774 60.5024 21.3633Z" fill="black"/>
<path d="M38.0142 27.5626H34.6157V9.56256H38.0142V27.5626ZM55.7563 27.5626H52.3579V9.56256H55.7563V27.5626Z" fill="#DDD300"/>
</svg>
